<?xml version="1.0" encoding="UTF-8"?>
<svg id="Layer_2" data-name="Layer 2" xmlns="http://www.w3.org/2000/svg" viewBox="0 0 332.96 351.95">
  <defs>
    <style>
      .cls-1 {
        fill: #5b3895;
      }
    </style>
  </defs>
  <g id="Layer_1-2" data-name="Layer 1">
    <g>
      <path class="cls-1" d="M264.15,299.21l-10.29-10.4c-.48-.48-1.98-.78-2.48-.69s-.58,1.63-.37,2.18l22.14,56.86c.69,1.78-.78,4.61-3,4.61H72.51c-1.68,0-3.84-2.51-3.43-3.62l4.08-11.23H16.39C6.65,336.9,0,329.29,0,319.67L.02,45.94c0-8.42,7.25-15.33,15.33-15.34l69.1-.12c-.06-4.03.14-7.41,1.76-10.08l30.33-.12C118.46,7.97,128.2-.07,139.85,0c11.45.07,21.04,8.3,22.85,20.31l29.94.09c2.03,2.39,2.13,5.9,1.93,10.08l55.76.09c10.33-.49,17.32,7.18,17.31,17.38l-.04,147.73c15.6,22.8,16.19,51.81.8,75.51l11.65,11.87c4.79-2.58,9.01-1.63,12.42,1.78l34.88,34.85c7.28,7.27,7.47,18.56.54,26.05-6.05,6.54-17.85,9.11-25.31,1.74l-37.08-36.66c-2.96-2.93-3.81-6.78-1.36-11.6ZM188.04,55.51l-.12-28.55h-27.63c-1.82,0-3.98-2.13-4.05-3.99-.37-9.81-8.3-16.77-17.32-16.37-8.8.39-15.66,7.21-15.99,16.79-.07,2.06-2.39,3.59-4.39,3.59h-27.4s.17,28.64.17,28.64l96.74-.11ZM18.94,321.87c-2.01,0-3.9-2.02-3.9-4.2V50.02c0-2.92,1.77-4.31,4.32-4.32l64.98-.1.05-8.49-66.05-.09c-5.34,0-11.74,2.26-11.74,9.01l-.05,273.61c0,6.69,4.51,10.64,10.84,10.64h58.47c1.25-2.84,2.3-5.66,3.13-8.4l-60.04-.02ZM252.57,180.58l8.47,6.34.04-139.97c0-4.78-3.76-9.79-8.75-9.8l-57.56-.09v8.55s53.73.02,53.73.02c2.4,0,4.06,1.57,4.06,4.25v130.69ZM245.93,175.95l.06-123.69-51.05-.03-1.15,9.69-107.9.05c-1.14-3.32-1.27-5.84-1.27-9.7l-62.99-.09-.04,263.08,58.86-.21c13.01-8.32-12.74-20.91,1.7-44.66,5.3-8.72,14.92-14.14,26.05-13.87l4.46-10.85,34.91-.28c-4.59-26.11,6.37-50.64,26.22-65.04,21.16-15.35,48.24-17.12,72.12-4.41ZM183.1,285.6c21.09,12.39,46.31,10.51,65.64-3.59,18.3-13.36,28.1-36.81,23.18-59.89-6.38-29.92-32.91-49.99-62.96-47.98-28.75,1.93-53.34,25.06-55.59,54.52-1.81,23.72,8.96,44.75,29.72,56.95ZM152.71,295.8l13.32-14.85c-8.2-8.52-13.7-17.68-17.07-28.88l-31.48-.16c-.83,1.47-1.66,3.95-1.93,5.58,11.88,4.23,20.12,13.68,20.68,26.65l16.49,11.66ZM107.18,328.14c8.77-10.98,16.47-21.56,21.11-34.1,3.88-10.5.03-21.7-8.9-27.46s-19.63-4.63-27.44,2.28c-7.73,6.84-9.51,17.57-5.01,27.52,5.2,11.48,11.86,21.76,20.23,31.76ZM268.64,294.38l6.66-6.93-11.11-10.81-6.4,6.66,10.86,11.08ZM245.63,296.96c.58-.63-.61-4.09-1.11-4.29l-8.51,3.82-37.34,40.71-36.47-26.24c-1.33-.96-.51-4.92.62-5.57l14.19-15.63c-2.2-1.65-4.32-3.11-6.12-4.15l-17.26,18.67-17.6-12.02c-1.23,2.55-2.2,5.36-1.9,7.44l51.18,37.14c0,3.02-1.63,5.11-3.78,8.04l20.23.1,43.86-48.01ZM322.65,324.05l-34.84-34.85c-.99-.99-4.05-.91-4.93,0l-14.54,14.9,38.85,38.77c4.53,4.52,12.96,2.03,16.35-2.07,3.8-4.61,4.03-11.82-.89-16.74ZM197.82,328.66l25.98-28.65c-14.63,1.28-27.72-.35-40.97-6.97l-13.51,14.91,28.51,20.71ZM265.18,344.81l-16.21-41.69-21.92,23.83,22.32,18.11,15.82-.25ZM77.7,344.92l93.56.1c2.1-1.98,3.86-3.84,5.82-6.12l-46.28-33.55c-2.64,4.51-21.63,36.8-26.07,30.36l-15.82-20.84-11.21,30.05ZM238.47,344.84l-15.86-13.2-11.74,13.25,27.61-.06Z"/>
      <path class="cls-1" d="M231.08,146.37l-86.7.16-.16-38.01,86.73.05.13,37.8ZM227.04,142.48l-.09-29.68-78.42.07.02,29.59,78.49.02Z"/>
      <path class="cls-1" d="M74.4,174.72h-25.32s-.29-23.05-.29-23.05c-.01-.9,1.91-2.94,2.89-2.94l22.59.19.14,25.79ZM70.18,170.29l-.14-17.05-16.83.08-.25,17.07,17.22-.11Z"/>
      <path class="cls-1" d="M69.74,100.56c.36-3.23.41-5.81,2.86-8.36,2.93,3.98,2.1,8.33.76,12.72l-24.25-.12.06-25.71,14.92-.29c.88-.02,2.33,1.17,2.67,1.71.46.72-1.2,2.83-2.17,2.85l-11.68.23.08,16.9,16.75.06Z"/>
      <path class="cls-1" d="M70.17,135.59c-.04-4.11-.87-7.33,3.59-8.05.7,3.84.71,7.69.21,12.28l-25.05-.1.23-25.77,15.17-.14c.93,0,2.91,1.82,2.56,2.57s-1.96,2-2.88,2.01l-11.09.07.12,16.96,17.15.16Z"/>
      <path class="cls-1" d="M125.15,130.11l-37.93.12c-1.51,0-3.7-1.55-3.82-2.85-.17-1.88,1.7-3.8,3.85-3.8h37.28c1.17,0,3.18,1.9,3.57,3.01.36,1.04-1.49,3.51-2.95,3.52Z"/>
      <path class="cls-1" d="M125.19,95.19l-37.97.06c-1.43,0-3.81-1.6-3.91-2.83-.14-1.8,1.85-3.78,3.94-3.78l37.2-.03c1.24,0,3.18,1.67,3.51,2.71s-1.45,3.87-2.77,3.87Z"/>
      <path class="cls-1" d="M124.56,165.04l-37.36.04c-1.46,0-3.66-1.66-3.78-2.88-.17-1.76,1.73-3.71,3.82-3.71h37.36c1.17.01,3.24,1.76,3.34,2.85.14,1.54-1.72,3.7-3.39,3.7Z"/>
      <path class="cls-1" d="M210.68,102.33l-6.13-10.88c-3.98,1.23-1.03,3.26-2.57,9.31-.2.77-2.27,1.25-2.72.59s-1.15-2.62-1.14-3.62l.15-18.98c5.64-.54,15.1-1.07,15.17,5.71.03,2.48-1.25,4.84-3.63,7.4l3.48,7.33c.28.59-1.23,2.16-2.61,3.13ZM202.89,82.84c-.96,1.17-.73,5.96.68,5.96,1.21,0,4.02-.42,5-1.13,1.14-.83.62-4.07-.51-4.92-.97-.73-4.41-.84-5.17.09Z"/>
      <path class="cls-1" d="M193.9,98.13c-.43,2.39-4.98,3.84-6.95,3.83s-6.32-1.74-6.65-3.89c-.8-5.12-.76-9.66-.23-14.74.31-2.97,4.43-4.83,6.81-4.84,2.62,0,6.72,1.49,7.21,4.57.78,4.93.82,9.46-.18,15.06ZM190.1,84.14c-.09-1.1-3.01-2.32-3.97-1.91s-2.54,2.39-2.51,3.44l.27,10.41c.02.83,2.2,1.91,2.99,2.14,5.04,1.49,3.47-10.93,3.22-14.09Z"/>
      <path class="cls-1" d="M226.76,90.28c1.52,2.03-6,1.08-6.01,2.3l-.03,4.97,8.54.46c.4.02,1.36.97,1.6,1.29.36.47-1.07,2.46-1.66,2.44l-12.55-.27-.21-22.72,14.06-.12c.16,1.96.53,2.9-.19,3l-4.94.65c-1.04.14-4.36-.52-4.43.49l-.34,4.6c-.17,2.34,3.63-.49,6.16,2.9Z"/>
      <path class="cls-1" d="M166.34,95.32c.01,1.32,2.7,3.37,3.61,2.95s2.08-1.54,2.99-2.54l2.05-2.24c.63-.69,2.16,2.56,1.8,3.6-.91,2.64-4.04,4.73-6.93,4.76-2.32.02-6.89-1.51-7.33-4.21-.83-5.07-.83-9.79-.03-14.83.48-3.03,4.86-4.4,7.38-4.29,2.93.12,5.83,1.67,6.94,5.02.29.87-.33,2.8-1.11,3.21-3.34,1.75-2.16-4.99-6.64-4.67-1.12.08-2.85,2.33-2.83,3.46l.11,9.8Z"/>
      <path class="cls-1" d="M148.78,84.03c.04,4.73,12.38,3.23,10.07,13.19-.9,3.89-6.5,5.49-9.89,4.28-1.08-.39-3.05-1.44-3.85-1.93-.74-.45-.27-2.68.36-3.74,2.87,1.37,6.64,3.69,9.05,1.06,4.57-4.98-11.68-4.3-9.4-13.62.92-3.76,5.15-5.74,9.32-4.52l3.39.98c.75.22.08,3.21-.68,3.06-2.08-.41-7.21-1.57-8.38,1.22Z"/>
      <path class="cls-1" d="M55.97,91.14c-.7-.86.55-3.95,1.38-3.84,4.99.68,4.53,4.81,6.52,2.76l11.08-11.4c.69-.71,3.58-.65,4.03.19s.05,3.17-.64,3.87l-15.1,15.31c-2.53-1.91-5.73-5-7.27-6.88Z"/>
      <path class="cls-1" d="M63.05,133.09c-3.06-2.15-10.03-8.87-6.27-10.47s5.03,4.34,7.03,2.3l11.12-11.33c.59-.6,2.79-.67,3.57-.5s1.25,3.02.57,3.71l-16.02,16.28Z"/>
      <path class="cls-1" d="M137.78,13.06c5.68-1.09,10.76,2.94,11.93,7.97,1.35,5.78-2.29,11.02-7.48,12.25-5.91,1.4-11.45-2.43-12.76-7.29-1.67-6.21,2.16-11.74,8.31-12.93ZM137.53,20.02c-1.82,1.17-2.12,4.46-.97,5.53s4.18,1.8,5.2.9c1.16-1.02,1.72-3.7,1.24-4.97-.51-1.35-4.09-2.36-5.47-1.47Z"/>
      <path class="cls-1" d="M260.12,255.08c-10.98,24.38-38.43,35.73-62.98,27.7-24.02-7.86-39.9-32.5-35-58.08,5.84-30.46,36.7-48.94,65.71-40.12,29.37,8.93,45.47,41.15,32.26,70.5ZM183.85,267.82c19.43,16.48,46.54,13.94,62.94-4.13,16.1-17.73,14.84-45.64-2.53-62.21s-45.11-16.86-62.7.47c-18.76,18.48-18.17,48.52,2.29,65.87Z"/>
      <path class="cls-1" d="M103.4,269.22c9.69-2.32,18.24,4.26,20.21,12.98s-3.77,17.51-12.11,19.48c-9.43,2.23-18.31-2.98-20.61-11.98s2.68-18.11,12.51-20.47ZM105.51,275.43c-6.49,1.37-9.32,6.94-8.06,12.75,1.04,4.81,6.06,8.5,11.92,7.22,4.84-1.06,8.93-5.77,7.77-11.75-.84-4.34-5.78-9.45-11.64-8.22Z"/>
      <path class="cls-1" d="M220.04,135.42c-.35,2.21-4.4,3.77-6.22,3.79-2.02.02-6.8-1.25-7.16-3.41-.95-5.69-.93-10.32-.01-16.06.29-1.82,4.47-3.39,6.3-3.48,2.05-.1,6.52,1.27,7.02,3.77,1.02,5.04,1,9.56.07,15.39ZM216.41,133.45l.55-9.99c.09-1.59-2.58-3.76-3.94-3.58-1.14.15-3.2,2.15-3.19,3.32l.15,9.48c.02,1.01,2.07,2.73,2.94,2.99s3.43-1.17,3.49-2.23Z"/>
      <path class="cls-1" d="M198.36,136.67l.07-13.6-3.67-2.36c2.29-2.27,3.97-3.71,7.42-4.59l.37,20.21c.02,1.06-1.23,2.66-1.84,2.75-.81.12-2.37-1.33-2.36-2.39Z"/>
    </g>
  </g>
</svg>