<?xml version="1.0" encoding="UTF-8"?>
<svg id="Layer_2" data-name="Layer 2" xmlns="http://www.w3.org/2000/svg" viewBox="0 0 410.65 354.89">
  <defs>
    <style>
      .cls-1 {
        fill: #5b3895;
      }
    </style>
  </defs>
  <g id="Layer_1-2" data-name="Layer 1">
    <g>
      <path class="cls-1" d="M410.61,29.67c0-4-3.85-5.95-6.95-4.93l-123.07,40.08c-.04.77-.1,1.55-.17,2.33-.31,3.34-.85,6.53-1.56,9.61l110.12-36.07,11.09-3.6.06,264.45-125.59,40.53-.06-251.41c-1.53,3.94-3.2,7.74-4.86,11.5l-.68,1.55c-1.51,3.43-3.12,6.82-4.81,10.14l-.02,227.76-117.62-45.98V113.43c-3.86-7.57-7.53-15.5-10.43-23.43l.06,205.45-125.59,40.24V71.3s125.5-40.62,125.5-40.62h0c1.88-4.32,4.17-8.49,6.86-12.43l-1.4-.55L5.1,62.03C2.63,62.84.02,64.72.02,67.68l-.02,274.61c0,3.39,2.81,6.87,6.61,5.66l134.71-43.09,127.87,50.03,137.17-44.23c2.59-.95,3.69-2.42,4.29-5.38l-.04-275.61Z"/>
      <g>
        <path class="cls-1" d="M232.09,6.33c-20.39-10.33-44.94-7.79-63.13,5.99-16.99,12.86-27.27,35.42-23.14,57.42,3.73,19.87,17.11,43.11,27.05,60.53l4.68,7.4c1.06,1.68,2.17,3.33,3.33,4.95l20.02,28.04c2.02,2.82,6.66,2.95,8.79.16,12.86-16.83,24.18-33.84,34.71-52.21l.1-.03,3.88-7.05c2.48-4.51,4.75-9.13,6.82-13.85,4.66-10.6,9.21-20.48,10.28-31.91,2.29-24.72-11.16-48.18-33.39-59.44ZM254.67,69.87c-9.85,31.73-28.81,61.03-49.37,89.09-17.7-23.45-42.07-61.78-48.86-88.84-4.33-17.29,3.29-35.97,15.96-47.05,13.74-12.01,32.41-15.85,49.74-9.61,23.24,8.37,36.53,32.24,32.53,56.41Z"/>
        <path class="cls-1" d="M227.86,37c-10.69-10.03-26.22-11.95-38.77-4.67-13.01,7.55-19.19,21.89-16,36.35,2.95,13.37,14.44,24.3,29.74,25.6,14.81,1.27,27.49-7.8,32.67-19.47,6.03-13.59,2.16-28.6-7.64-37.81ZM226.51,69.05c-3.46,9.25-13.07,16.43-24.31,14.69-9.05-1.41-15.71-7.63-18.13-14.75-2.95-8.71-.93-17.75,5.6-24.18,7.46-7.34,19.24-8.33,27.99-2.54,8.44,5.58,12.63,16.69,8.85,26.78Z"/>
      </g>
    </g>
  </g>
</svg>